<svg id="Layer_1" data-name="Layer 1" xmlns="http://www.w3.org/2000/svg" viewBox="0 0 50 50"><defs><style>.cls-1{fill:#fff;}</style></defs><path class="cls-1" d="M25,12.18A12.76,12.76,0,1,0,37.74,24.94,12.76,12.76,0,0,0,25,12.18Zm0,21a8.3,8.3,0,0,1,0-16.59h0a8.3,8.3,0,0,1,0,16.59Z"/><circle class="cls-1" cx="38.25" cy="11.71" r="2.98"/><path class="cls-1" d="M48.54,8.68a12.74,12.74,0,0,0-7.27-7.26,18,18,0,0,0-6-1.16C32.58.14,31.73.11,25,.11s-7.6,0-10.24.15a17.93,17.93,0,0,0-6,1.16A12.68,12.68,0,0,0,1.46,8.68a18,18,0,0,0-1.16,6C.18,17.37.15,18.21.15,25s0,7.59.15,10.24a18,18,0,0,0,1.16,6A12.7,12.7,0,0,0,8.73,48.5a18.27,18.27,0,0,0,6,1.24c2.66.12,3.5.15,10.24.15s7.6,0,10.24-.15a18,18,0,0,0,6-1.16,12.71,12.71,0,0,0,7.27-7.26,18.09,18.09,0,0,0,1.16-6c.12-2.65.15-3.5.15-10.24s0-7.6-.15-10.24A18.3,18.3,0,0,0,48.54,8.68ZM45.17,35a13.72,13.72,0,0,1-.85,4.66,8.24,8.24,0,0,1-4.73,4.72,13.69,13.69,0,0,1-4.61.86c-2.62.12-3.36.15-10.08.15s-7.42,0-10.09-.15a13.65,13.65,0,0,1-4.61-.86,8.2,8.2,0,0,1-4.74-4.72A13.69,13.69,0,0,1,4.6,35c-.12-2.62-.15-3.36-.15-10.08s0-7.42.15-10.09a13.54,13.54,0,0,1,.86-4.66A8.23,8.23,0,0,1,10.2,5.49a13.69,13.69,0,0,1,4.61-.86c2.62-.12,3.36-.15,10.09-.15s7.41,0,10.08.15a13.69,13.69,0,0,1,4.61.86,8.27,8.27,0,0,1,4.73,4.72,14,14,0,0,1,.85,4.61c.12,2.63.15,3.36.15,10.09s0,7.45-.12,10.08Z"/></svg>